HIERARCHY
ROOT Hips
{
	OFFSET 0.000000 1.471914 24.280096
	CHANNELS 6 Xposition Yposition Zposition Xrotation Yrotation Zrotation
	JOINT Spine
	{
		OFFSET 0.000000 0.900110 1.860670
		CHANNELS 6 Xposition Yposition Zposition Xrotation Yrotation Zrotation
		JOINT Spine1
		{
			OFFSET 0.000000 0.400320 2.270309
			CHANNELS 6 Xposition Yposition Zposition Xrotation Yrotation Zrotation
			JOINT Spine2
			{
				OFFSET 0.000000 0.200920 2.296560
				CHANNELS 6 Xposition Yposition Zposition Xrotation Yrotation Zrotation
				JOINT Spine3
				{
					OFFSET 0.000000 0.000000 2.305330
					CHANNELS 6 Xposition Yposition Zposition Xrotation Yrotation Zrotation
					JOINT Neck
					{
						OFFSET 0.000000 -0.864490 6.051487
						CHANNELS 6 Xposition Yposition Zposition Xrotation Yrotation Zrotation
						JOINT Head
						{
							OFFSET 0.000000 -0.550429 3.121674
							CHANNELS 6 Xposition Yposition Zposition Xrotation Yrotation Zrotation
							End Site
							{
								OFFSET 0.000000 0.000000 3.731750
							}
						}
					}
					JOINT RightShoulder
					{
						OFFSET -0.788280 -1.313800 4.256718
						CHANNELS 6 Xposition Yposition Zposition Xrotation Yrotation Zrotation
						JOINT RightArm
						{
							OFFSET -3.915130 0.000000 0.000000
							CHANNELS 6 Xposition Yposition Zposition Xrotation Yrotation Zrotation
							JOINT RightForeArm
							{
								OFFSET -6.914910 0.000000 0.000000
								CHANNELS 6 Xposition Yposition Zposition Xrotation Yrotation Zrotation
								JOINT RightHand
								{
									OFFSET -6.096219 0.000000 0.000000
									CHANNELS 6 Xposition Yposition Zposition Xrotation Yrotation Zrotation
									JOINT RightHandEnd
									{
										OFFSET -1.749950 0.000000 0.000000
										CHANNELS 6 Xposition Yposition Zposition Xrotation Yrotation Zrotation
										End Site
										{
											OFFSET -1.749950 0.000000 0.000000
										}
									}
									JOINT RightHandThumb1
									{
										OFFSET -0.699980 -1.166630 -0.466648
										CHANNELS 6 Xposition Yposition Zposition Xrotation Yrotation Zrotation
										End Site
										{
											OFFSET -1.690319 -0.452920 0.000000
										}
									}
								}
							}
						}
					}
					JOINT LeftShoulder
					{
						OFFSET 0.788280 -1.313800 4.256718
						CHANNELS 6 Xposition Yposition Zposition Xrotation Yrotation Zrotation
						JOINT LeftArm
						{
							OFFSET 3.915130 0.000000 0.000000
							CHANNELS 6 Xposition Yposition Zposition Xrotation Yrotation Zrotation
							JOINT LeftForeArm
							{
								OFFSET 6.914910 0.000000 0.000000
								CHANNELS 6 Xposition Yposition Zposition Xrotation Yrotation Zrotation
								JOINT LeftHand
								{
									OFFSET 6.096219 0.000000 0.000000
									CHANNELS 6 Xposition Yposition Zposition Xrotation Yrotation Zrotation
									JOINT LeftHandEnd
									{
										OFFSET 1.749950 0.000000 0.000000
										CHANNELS 6 Xposition Yposition Zposition Xrotation Yrotation Zrotation
										End Site
										{
											OFFSET 1.749950 0.000000 0.000000
										}
									}
									JOINT LeftHandThumb1
									{
										OFFSET 0.699980 -1.166630 -0.466648
										CHANNELS 6 Xposition Yposition Zposition Xrotation Yrotation Zrotation
										End Site
										{
											OFFSET 1.690319 -0.452920 0.000000
										}
									}
								}
							}
						}
					}
				}
			}
		}
	}
	JOINT RightUpLeg
	{
		OFFSET -2.338570 -0.252550 -0.551512
		CHANNELS 6 Xposition Yposition Zposition Xrotation Yrotation Zrotation
		JOINT RightLeg
		{
			OFFSET 0.000000 0.000000 -10.744959
			CHANNELS 6 Xposition Yposition Zposition Xrotation Yrotation Zrotation
			JOINT RightFoot
			{
				OFFSET 0.000000 -0.000001 -10.930849
				CHANNELS 6 Xposition Yposition Zposition Xrotation Yrotation Zrotation
				JOINT RightToeBase
				{
					OFFSET 0.000000 -4.087269 -1.487650
					CHANNELS 6 Xposition Yposition Zposition Xrotation Yrotation Zrotation
					End Site
					{
						OFFSET 0.000000 -1.891870 0.000000
					}
				}
			}
		}
	}
	JOINT LeftUpLeg
	{
		OFFSET 2.338570 -0.252550 -0.551512
		CHANNELS 6 Xposition Yposition Zposition Xrotation Yrotation Zrotation
		JOINT LeftLeg
		{
			OFFSET 0.000000 0.000000 -10.744959
			CHANNELS 6 Xposition Yposition Zposition Xrotation Yrotation Zrotation
			JOINT LeftFoot
			{
				OFFSET 0.000000 -0.000001 -10.930849
				CHANNELS 6 Xposition Yposition Zposition Xrotation Yrotation Zrotation
				JOINT LeftToeBase
				{
					OFFSET 0.000000 -4.087269 -1.487650
					CHANNELS 6 Xposition Yposition Zposition Xrotation Yrotation Zrotation
					End Site
					{
						OFFSET 0.000000 -1.891870 0.000000
					}
				}
			}
		}
	}
}
MOTION
Frames: 4
Frame Time: 0.041667
-0.000172 26.743071 40.714809 8.140075 2.743253 -50.602143 -0.000011 0.900098 1.860705 6.203502 -6.847103 -0.879329 0.000006 0.400283 2.270336 -0.000003 -0.000001 0.000005 0.000023 0.200896 2.296528 -0.000000 -0.000001 -0.000001 0.000019 -0.000040 2.305347 -0.000040 -0.000003 4.373471 -0.000009 -0.864467 6.051493 19.828367 -0.696858 194.976329 0.000021 -0.550445 3.121712 0.000000 0.000003 -0.000000 -0.788282 -1.313743 4.256767 -214.558208 23.965100 -45.262646 -3.915092 -0.000003 -0.000031 -0.000001 -0.000005 -0.000000 -6.914876 -0.000014 0.000001 -0.000021 -0.000024 -97.792518 -6.096189 -0.000018 0.000012 -0.000105 -0.000032 -0.000018 -1.749929 -0.000016 0.000016 0.000000 0.000000 0.000000 -0.700009 -1.166629 -0.466667 -0.000004 0.000005 -0.000005 0.788262 -1.313796 4.256736 -240.535002 -5.810561 42.285561 3.915184 -0.000015 -0.000004 -0.000000 0.000000 0.000000 6.914915 -0.000019 -0.000011 -0.000023 0.000031 90.545919 6.096237 0.000053 -0.000009 -0.000029 0.000046 -0.000046 1.749933 0.000010 0.000004 0.000003 0.000003 0.000000 0.699930 -1.166602 -0.466662 0.000026 -0.000003 -0.000029 -2.338576 -0.252532 -0.551510 -6.977965 34.040693 1.062991 0.000009 -0.000016 -10.744969 45.141806 -22.216215 18.278006 -0.000020 0.000041 -10.930838 -0.000003 -0.000003 0.000004 -0.000003 -4.087255 -1.487640 0.000005 0.000001 0.000000 2.338575 -0.252533 -0.551452 -4.329242 4.065119 0.597079 -0.000009 -0.000015 -10.744937 15.913916 2.351390 -1.050679 -0.000006 0.000017 -10.930859 0.000017 -0.000004 -0.000001 -0.000015 -4.087226 -1.487648 -0.000003 0.000001 0.000007 
-0.000176 26.743065 40.714787 8.130759 2.859225 -50.787405 -0.000009 0.900100 1.860701 6.394045 -6.848716 -0.885919 -0.000002 0.400284 2.270333 -0.000003 -0.000001 0.000009 0.000023 0.200896 2.296528 0.000001 -0.000001 0.000002 0.000015 -0.000037 2.305340 -0.000039 -0.000001 4.358079 -0.000009 -0.864469 6.051490 20.168961 -0.285275 194.810724 0.000018 -0.550450 3.121716 -0.000002 0.000001 -0.000001 -0.788281 -1.313744 4.256771 -216.205403 24.599958 -44.522854 -3.915093 0.000001 -0.000035 0.000003 -0.000005 -0.000001 -6.914876 -0.000018 0.000004 -0.000025 -0.000024 -98.551509 -6.096193 -0.000019 0.000004 -0.000105 -0.000037 -0.000015 -1.749921 -0.000008 0.000018 0.000003 -0.000008 -0.000002 -0.700000 -1.166619 -0.466664 0.000001 -0.000005 -0.000005 0.788264 -1.313795 4.256734 -240.103334 -5.188233 42.240062 3.915183 -0.000015 -0.000011 0.000001 -0.000001 0.000003 6.914915 -0.000024 -0.000008 -0.000020 0.000031 91.209294 6.096234 0.000046 -0.000011 -0.000034 0.000038 -0.000044 1.749930 0.000016 0.000007 0.000002 0.000006 0.000000 0.699927 -1.166602 -0.466659 0.000030 0.000000 -0.000030 -2.338576 -0.252529 -0.551513 -7.548839 33.243825 1.118586 0.000012 -0.000016 -10.744970 45.564431 -21.469021 17.996411 -0.000027 0.000043 -10.930840 -0.000005 -0.000006 -0.000000 0.000001 -4.087256 -1.487642 0.000000 0.000001 -0.000002 2.338577 -0.252532 -0.551457 -3.929069 4.041478 0.530265 -0.000006 -0.000018 -10.744929 15.590409 2.455088 -0.991048 -0.000007 0.000018 -10.930856 0.000015 -0.000007 -0.000002 -0.000011 -4.087226 -1.487650 -0.000007 -0.000002 0.000010 
-0.000169 26.743057 40.714775 8.193954 2.766984 -50.759002 -0.000011 0.900098 1.860704 6.390234 -6.856599 -0.871210 0.000001 0.400284 2.270327 -0.000003 -0.000001 0.000009 0.000023 0.200897 2.296530 0.000000 -0.000001 0.000001 0.000016 -0.000041 2.305340 -0.000038 -0.000001 4.254149 -0.000009 -0.864472 6.051491 20.613410 -0.037636 194.860571 0.000021 -0.550448 3.121723 0.000000 0.000002 -0.000002 -0.788283 -1.313746 4.256771 -216.995643 25.665401 -43.676632 -3.915092 -0.000002 -0.000039 0.000000 -0.000005 -0.000001 -6.914877 -0.000011 0.000008 -0.000022 -0.000024 -99.967837 -6.096187 -0.000019 0.000014 -0.000102 -0.000030 -0.000016 -1.749926 -0.000010 0.000021 0.000005 -0.000006 0.000002 -0.700005 -1.166622 -0.466659 -0.000001 -0.000000 -0.000005 0.788263 -1.313792 4.256734 -239.573174 -4.921833 42.109790 3.915190 -0.000020 -0.000003 0.000004 -0.000006 -0.000002 6.914919 -0.000023 -0.000004 -0.000020 0.000029 92.309542 6.096232 0.000049 -0.000008 -0.000035 0.000041 -0.000045 1.749940 0.000013 0.000008 0.000002 0.000002 0.000003 0.699933 -1.166600 -0.466657 0.000028 -0.000005 -0.000028 -2.338574 -0.252532 -0.551512 -7.886503 32.423311 1.143671 0.000012 -0.000017 -10.744970 45.353491 -20.804118 17.456541 -0.000027 0.000042 -10.930840 -0.000009 -0.000004 -0.000001 -0.000001 -4.087254 -1.487643 0.000001 0.000002 -0.000003 2.338576 -0.252533 -0.551454 -3.986084 4.155880 0.529328 -0.000005 -0.000020 -10.744935 15.546417 2.356567 -0.925213 -0.000006 0.000017 -10.930860 0.000022 -0.000004 -0.000001 -0.000009 -4.087231 -1.487649 -0.000005 -0.000002 -0.000003 
-0.000164 26.743053 40.714745 8.005070 2.815128 -51.007562 -0.000012 0.900097 1.860706 6.705861 -6.654224 -0.923518 -0.000001 0.400284 2.270333 -0.000003 -0.000001 0.000005 0.000024 0.200898 2.296530 -0.000000 -0.000001 0.000000 0.000017 -0.000036 2.305344 -0.000040 0.000001 4.257357 -0.000008 -0.864469 6.051493 20.887019 -0.005961 195.985516 0.000019 -0.550450 3.121716 0.000002 0.000004 -0.000006 -0.788280 -1.313745 4.256770 -218.194682 26.773279 -42.770081 -3.915092 -0.000002 -0.000031 -0.000001 -0.000005 -0.000000 -6.914877 -0.000019 0.000012 -0.000026 -0.000024 -101.029815 -6.096191 -0.000015 0.000012 -0.000106 -0.000028 -0.000019 -1.749930 -0.000008 0.000017 0.000004 -0.000001 0.000001 -0.700012 -1.166623 -0.466663 0.000001 0.000003 -0.000007 0.788264 -1.313792 4.256732 -239.468154 -5.332079 41.492757 3.915188 -0.000012 0.000001 0.000005 -0.000007 -0.000000 6.914917 -0.000020 -0.000004 -0.000025 0.000031 93.097889 6.096225 0.000050 -0.000002 -0.000032 0.000045 -0.000046 1.749935 0.000015 0.000012 -0.000001 -0.000003 0.000000 0.699931 -1.166598 -0.466654 0.000026 -0.000005 -0.000029 -2.338578 -0.252532 -0.551513 -8.302929 31.659863 1.208669 0.000017 -0.000018 -10.744972 45.377472 -19.864038 16.890966 -0.000027 0.000045 -10.930839 -0.000003 -0.000007 -0.000001 -0.000001 -4.087260 -1.487639 0.000005 0.000005 -0.000003 2.338575 -0.252534 -0.551455 -3.439882 4.394727 0.461829 -0.000003 -0.000017 -10.744938 15.074306 2.475868 -0.858505 -0.000003 0.000017 -10.930856 0.000019 -0.000007 -0.000001 -0.000014 -4.087226 -1.487651 -0.000007 -0.000004 -0.000000 
